<?xml version="1.0" encoding="utf-8"?>
<!-- Generator: Adobe Illustrator 16.0.3, SVG Export Plug-In . SVG Version: 6.00 Build 0)  -->
<!DOCTYPE svg PUBLIC "-//W3C//DTD SVG 1.1//EN" "http://www.w3.org/Graphics/SVG/1.1/DTD/svg11.dtd">
<svg version="1.1" id="Capa_1" xmlns="http://www.w3.org/2000/svg" xmlns:xlink="http://www.w3.org/1999/xlink" x="0px" y="0px"
	 width="960px" height="560px" viewBox="0 0 960 560" enable-background="new 0 0 960 560" xml:space="preserve">
<path d="M511.589,345.672V241.959h34.627c12.532,1.191,19.719,2.312,25.209,6.937c3.421,2.82,6.006,6.383,7.755,10.688
	c1.748,4.305,2.622,8.826,2.622,13.563c0,8.911-2.783,20.015-8.799,25.729c-5.678,5.527-14.136,4.5-24.926,4.5h-23.574v42.298
	H511.589z M546.497,292.772c7.182,0,12.709-1.842,16.582-5.527c3.721-3.496,5.582-8.195,5.582-14.1
	c0-7.219-2.388-12.688-7.162-16.411c-3.383-2.631-8.008-3.947-14.123-0.61h-23.123l0.25,36.648H546.497z"/>
<path d="M670.513,241.959v65.589c0,6.166-0.479,11.468-1.438,15.904s-0.564,15.063-3.572,18.672
	c-6.279,7.709-18.281,6.111-30.801,6.111c-12.559,0-24.607,0.355-30.699-6.111c-3.309-3.984-2.528-13.061-3.563-17.742
	c-1.034-4.681-1.551-10.292-1.551-16.834v-65.589h12.915v65.589c0,9.438,1.391,16.148,4.173,20.134
	c3.534,5.226,10.152,7.839,19.852,7.839c8.723,0,14.964-2.387,18.725-7.162c2.293-2.744,3.712-5.687,4.258-8.826
	c0.545-3.139,0.817-7.135-3.475-11.984v-65.589H670.513z"/>
<path d="M695.667,345.672V241.959h39.252c4.924,0,8.91,0.272,11.955,0.817s6.147,1.89,9.306,4.032
	c7.256,4.851,10.884,11.618,10.884,20.303c0,5.903-1.616,10.913-4.85,15.03c-3.234,4.117-7.707,6.89-13.422,8.318v0.226
	c6.466,1.354,11.664,4.427,15.594,9.221c3.928,4.794,5.893,10.499,5.893,17.116c0,9.551-3.309,16.862-9.926,21.938
	c-3.646,2.819-7.387,4.644-11.223,5.47c-3.834,0.828-8.572,1.241-14.211,1.241H695.667z M728.94,286.286
	c9.098,0,15.414-1.297,18.949-3.891c1.918-1.467,3.469-3.459,4.652-5.979c1.185-2.519,4.313-7.121,1.777-7.67
	c-3.648-0.789-2.539-10.603-7.614-13.648c-3.083-1.842-7.934-2.763-14.55-2.763h-23.574v33.95H728.94z M734.017,334.562
	c7.443,0,12.988-1.447,16.637-4.342c4.322-2.857,0.094-13.984,6.484-13.874c6.533,0.112-2.463-12.162-7.387-16.186
	c-3.422-2.444-9.287-3.666-17.596-3.666h-23.574v38.067H734.017z"/>
<ellipse fill="none" stroke="#000000" stroke-width="11.6799" stroke-miterlimit="10" cx="386.368" cy="280" rx="67.278" ry="64.86"/>
<ellipse fill="#FFFFFF" stroke="#000000" stroke-width="11.6799" stroke-miterlimit="10" cx="386.368" cy="215.138" rx="16.556" ry="15.854"/>
<ellipse fill="#FFFFFF" stroke="#000000" stroke-width="11.6799" stroke-miterlimit="10" cx="336.161" cy="236.987" rx="16.556" ry="15.854"/>
<path fill="#FFFFFF" stroke="#000000" stroke-width="11.6799" stroke-miterlimit="10" d="M354.976,325.625
	c0,8.756-7.414,15.855-16.556,15.855c-9.144,0-16.557-7.1-16.557-15.855c0-8.754,7.414-15.852,16.557-15.852
	C347.563,309.773,354.976,316.871,354.976,325.625z"/>
<ellipse fill="#FFFFFF" stroke="#000000" stroke-width="11.6799" stroke-miterlimit="10" cx="435.793" cy="236.017" rx="16.556" ry="15.854"/>
<ellipse fill="#FFFFFF" stroke="#000000" stroke-width="11.6799" stroke-miterlimit="10" cx="438.513" cy="321.031" rx="16.557" ry="15.854"/>
<ellipse fill="#FFFFFF" stroke="#000000" stroke-width="11.6799" stroke-miterlimit="10" cx="453.646" cy="279.999" rx="16.556" ry="15.855"/>
<ellipse fill="#FFFFFF" stroke="#000000" stroke-width="11.6799" stroke-miterlimit="10" cx="319.091" cy="279.999" rx="16.556" ry="15.855"/>
<path fill="#FFFFFF" stroke="#000000" stroke-width="11.6799" stroke-miterlimit="10" d="M402.925,344.859
	c0,8.756-7.413,15.855-16.556,15.855c-9.144,0-16.557-7.1-16.557-15.855c0-8.754,7.413-15.852,16.557-15.852
	C395.512,329.008,402.925,336.105,402.925,344.859z"/>
</svg>
